<mxfile host="app.diagrams.net" modified="2023-11-09T14:07:29.187Z" agent="Mozilla/5.0 (Windows NT 10.0; Win64; x64) AppleWebKit/537.36 (KHTML, like Gecko) Chrome/119.0.0.0 Safari/537.36" etag="D6-DzUV2sFBQouvKjwpS" version="22.1.0" type="github">
  <diagram name="PÃ¡gina-1" id="RGWx1dlrcK00-ObPvxLb">
    <mxGraphModel dx="880" dy="478" grid="1" gridSize="10" guides="1" tooltips="1" connect="1" arrows="1" fold="1" page="1" pageScale="1" pageWidth="827" pageHeight="1169" math="0" shadow="0">
      <root>
        <mxCell id="0" />
        <mxCell id="1" parent="0" />
        <mxCell id="xlwyuGkL5md67Bc0ApYY-1" value="Semaforo" style="ellipse;whiteSpace=wrap;html=1;aspect=fixed;" vertex="1" parent="1">
          <mxGeometry x="50" y="190" width="80" height="80" as="geometry" />
        </mxCell>
        <mxCell id="xlwyuGkL5md67Bc0ApYY-2" value="" style="endArrow=none;html=1;rounded=0;" edge="1" parent="1" source="xlwyuGkL5md67Bc0ApYY-1" target="xlwyuGkL5md67Bc0ApYY-3">
          <mxGeometry width="50" height="50" relative="1" as="geometry">
            <mxPoint x="390" y="280" as="sourcePoint" />
            <mxPoint x="440" y="230" as="targetPoint" />
          </mxGeometry>
        </mxCell>
        <mxCell id="xlwyuGkL5md67Bc0ApYY-14" value="RedLight" style="edgeLabel;html=1;align=center;verticalAlign=middle;resizable=0;points=[];" vertex="1" connectable="0" parent="xlwyuGkL5md67Bc0ApYY-2">
          <mxGeometry x="0.0545" y="1" relative="1" as="geometry">
            <mxPoint as="offset" />
          </mxGeometry>
        </mxCell>
        <mxCell id="xlwyuGkL5md67Bc0ApYY-3" value="Red_Light" style="ellipse;whiteSpace=wrap;html=1;aspect=fixed;" vertex="1" parent="1">
          <mxGeometry x="350" y="190" width="80" height="80" as="geometry" />
        </mxCell>
        <mxCell id="xlwyuGkL5md67Bc0ApYY-4" value="Green_Light" style="ellipse;whiteSpace=wrap;html=1;aspect=fixed;" vertex="1" parent="1">
          <mxGeometry x="350" y="340" width="80" height="80" as="geometry" />
        </mxCell>
        <mxCell id="xlwyuGkL5md67Bc0ApYY-5" value="Yellow_Light" style="ellipse;whiteSpace=wrap;html=1;aspect=fixed;" vertex="1" parent="1">
          <mxGeometry x="350" y="40" width="80" height="80" as="geometry" />
        </mxCell>
        <mxCell id="xlwyuGkL5md67Bc0ApYY-6" value="ATimer" style="ellipse;whiteSpace=wrap;html=1;aspect=fixed;" vertex="1" parent="1">
          <mxGeometry x="160" y="350" width="80" height="80" as="geometry" />
        </mxCell>
        <mxCell id="xlwyuGkL5md67Bc0ApYY-7" value="" style="endArrow=none;html=1;rounded=0;" edge="1" parent="1" source="xlwyuGkL5md67Bc0ApYY-1" target="xlwyuGkL5md67Bc0ApYY-5">
          <mxGeometry width="50" height="50" relative="1" as="geometry">
            <mxPoint x="390" y="280" as="sourcePoint" />
            <mxPoint x="440" y="230" as="targetPoint" />
          </mxGeometry>
        </mxCell>
        <mxCell id="xlwyuGkL5md67Bc0ApYY-10" value="" style="endArrow=none;html=1;rounded=0;exitX=0;exitY=0;exitDx=0;exitDy=0;entryX=0.988;entryY=0.738;entryDx=0;entryDy=0;entryPerimeter=0;" edge="1" parent="1" source="xlwyuGkL5md67Bc0ApYY-4" target="xlwyuGkL5md67Bc0ApYY-1">
          <mxGeometry width="50" height="50" relative="1" as="geometry">
            <mxPoint x="390" y="280" as="sourcePoint" />
            <mxPoint x="440" y="230" as="targetPoint" />
          </mxGeometry>
        </mxCell>
        <mxCell id="xlwyuGkL5md67Bc0ApYY-13" value="GreenLight" style="edgeLabel;html=1;align=center;verticalAlign=middle;resizable=0;points=[];" vertex="1" connectable="0" parent="xlwyuGkL5md67Bc0ApYY-10">
          <mxGeometry x="0.1404" y="-2" relative="1" as="geometry">
            <mxPoint as="offset" />
          </mxGeometry>
        </mxCell>
        <mxCell id="xlwyuGkL5md67Bc0ApYY-11" value="" style="endArrow=none;html=1;rounded=0;" edge="1" parent="1" source="xlwyuGkL5md67Bc0ApYY-6" target="xlwyuGkL5md67Bc0ApYY-1">
          <mxGeometry width="50" height="50" relative="1" as="geometry">
            <mxPoint x="390" y="280" as="sourcePoint" />
            <mxPoint x="440" y="230" as="targetPoint" />
          </mxGeometry>
        </mxCell>
        <mxCell id="xlwyuGkL5md67Bc0ApYY-12" value="Timer" style="edgeLabel;html=1;align=center;verticalAlign=middle;resizable=0;points=[];" vertex="1" connectable="0" parent="xlwyuGkL5md67Bc0ApYY-11">
          <mxGeometry x="0.2337" y="2" relative="1" as="geometry">
            <mxPoint as="offset" />
          </mxGeometry>
        </mxCell>
        <mxCell id="xlwyuGkL5md67Bc0ApYY-15" value="YellowLight" style="text;html=1;align=center;verticalAlign=middle;resizable=0;points=[];autosize=1;strokeColor=none;fillColor=none;" vertex="1" parent="1">
          <mxGeometry x="185" y="138" width="90" height="30" as="geometry" />
        </mxCell>
      </root>
    </mxGraphModel>
  </diagram>
</mxfile>
